<?xml version="1.0" encoding="utf-8"?>
<!-- Generator: Adobe Illustrator 22.0.1, SVG Export Plug-In . SVG Version: 6.00 Build 0)  -->
<svg version="1.1" id="Layer_1" xmlns="http://www.w3.org/2000/svg" xmlns:xlink="http://www.w3.org/1999/xlink" x="0px" y="0px"
	 viewBox="0 0 440.3 135.7" style="enable-background:new 0 0 440.3 135.7;" xml:space="preserve">
<style type="text/css">
	.st0{fill:#4BA33A;}
</style>
<g>
	<path class="st0" d="M64.2,36.2l8,6l-4.9,6.2c3.4,3.8,4.6,8.2,4.6,13c0,5.4-2,13-9.2,16.3c7.3,3.6,9.1,8.9,9.1,14.5
		c0,12.1-9.2,19.5-21.9,19.5S27.6,104,27.6,92.2h10.7c0,5.7,5.2,9.4,11.5,9.4s11.1-3.4,11.1-9.4c0-6-5.7-8.8-11.1-8.8
		c-13.7,0-22.2-8.3-22.2-22c0-13.7,9.9-22.2,22.2-22.2c3.5,0,7,0.4,10,2.5L64.2,36.2z M38.4,61.4c0,7.6,5.1,12.2,11.5,12.2
		c6.2,0,11.4-4.6,11.4-12.2c0-7.5-5.1-12.3-11.4-12.3C43.5,49.1,38.4,53.8,38.4,61.4z"/>
	<path class="st0" d="M88.9,40.6l0.8,5.1c3.4-5.4,7.9-6.2,12.3-6.2c4.5,0,8.9,1.8,11.3,4.2l-4.9,9.4c-2.2-1.9-4.3-2.8-7.8-2.8
		c-5.7,0-10.9,3-10.9,11.1v23.1H78.9V40.6H88.9z"/>
	<path class="st0" d="M129.4,40.6v22.9c0,6.7,3.6,11.7,10.6,11.7c6.7,0,11.2-5.6,11.2-12.2V40.6h10.7v43.8h-9.7l-0.7-5.9
		c-4.5,4.4-8.7,6.6-14.8,6.6c-10.5,0-18.1-7.9-18.1-21.5v-23H129.4z"/>
	<path class="st0" d="M182.3,22.4v24.2c2.6-4.5,9.8-7,14.4-7c12.8,0,22.3,7.8,22.3,22.9c0,14.4-9.7,22.9-22.5,22.9
		c-5.3,0-10.7-1.8-14.1-7l-0.7,6h-10.1v-62H182.3z M183,62.5c0,7.9,5.9,12.9,12.7,12.9c6.9,0,12.4-5.2,12.4-12.9
		c0-7.9-5.5-12.8-12.4-12.8C188.8,49.7,183,54.8,183,62.5z"/>
	<path class="st0" d="M261.3,36.2l8,6l-4.9,6.2c3.4,3.8,4.6,8.2,4.6,13c0,5.4-2,13-9.2,16.3c7.3,3.6,9.1,8.9,9.1,14.5
		c0,12.1-9.2,19.5-21.9,19.5c-12.7,0-22.2-7.7-22.2-19.5h10.7c0,5.7,5.2,9.4,11.4,9.4c6.2,0,11.1-3.4,11.1-9.4c0-6-5.7-8.8-11.1-8.8
		c-13.7,0-22.2-8.3-22.2-22c0-13.7,9.9-22.2,22.2-22.2c3.5,0,7,0.4,10,2.5L261.3,36.2z M235.4,61.4c0,7.6,5.1,12.2,11.4,12.2
		c6.2,0,11.4-4.6,11.4-12.2c0-7.5-5.1-12.3-11.4-12.3C240.6,49.1,235.4,53.8,235.4,61.4z"/>
	<path class="st0" d="M285.9,40.6l0.8,5.1c3.4-5.4,7.9-6.2,12.3-6.2c4.5,0,8.9,1.8,11.3,4.2l-4.9,9.4c-2.2-1.9-4.3-2.8-7.8-2.8
		c-5.7,0-10.9,3-10.9,11.1v23.1h-10.8V40.6H285.9z"/>
	<path class="st0" d="M326.4,40.6v22.9c0,6.7,3.6,11.7,10.6,11.7c6.7,0,11.2-5.6,11.2-12.2V40.6h10.7v43.8h-9.7l-0.7-5.9
		c-4.5,4.4-8.7,6.6-14.8,6.6c-10.5,0-18.1-7.9-18.1-21.5v-23H326.4z"/>
	<path class="st0" d="M379.3,22.4v24.2c2.6-4.5,9.8-7,14.4-7c12.8,0,22.3,7.8,22.3,22.9c0,14.4-9.7,22.9-22.5,22.9
		c-5.3,0-10.7-1.8-14.1-7l-0.7,6h-10.1v-62H379.3z M380,62.5c0,7.9,5.9,12.9,12.7,12.9c6.9,0,12.4-5.2,12.4-12.9
		c0-7.9-5.5-12.8-12.4-12.8C385.9,49.7,380,54.8,380,62.5z"/>
</g>
<rect x="78.4" y="95.6" class="st0" width="133.5" height="8.5"/>
<rect x="275.9" y="95.6" class="st0" width="133.5" height="8.5"/>
</svg>
