<?xml version="1.0" encoding="utf-8"?>
<!-- Generator: Adobe Illustrator 22.0.1, SVG Export Plug-In . SVG Version: 6.00 Build 0)  -->
<svg version="1.1" id="Layer_2" xmlns="http://www.w3.org/2000/svg" xmlns:xlink="http://www.w3.org/1999/xlink" x="0px" y="0px"
	 viewBox="0 0 98.5 93.3" style="enable-background:new 0 0 98.5 93.3;" xml:space="preserve">
<style type="text/css">
	.st0{fill:#4BA33A;}
	.st1{fill:#FFFFFF;}
</style>
<circle class="st0" cx="49.8" cy="46.6" r="43.2"/>
<g>
	<path class="st1" d="M43.6,17.5l6,4.5l-3.7,4.7c2.5,2.9,3.5,6.1,3.5,9.7c0,4.1-1.5,9.8-6.9,12.3c5.5,2.7,6.8,6.7,6.8,10.9
		c0,9.1-6.9,14.7-16.5,14.7s-16.7-5.8-16.7-14.7h8.1c0,4.3,3.9,7.1,8.6,7.1s8.3-2.5,8.3-7.1S36.9,53,32.8,53
		c-10.3,0-16.7-6.3-16.7-16.5s7.5-16.7,16.7-16.7c2.6,0,5.3,0.3,7.5,1.9L43.6,17.5z M24.2,36.5c0,5.7,3.9,9.1,8.6,9.1
		c4.7,0,8.5-3.5,8.5-9.1s-3.9-9.3-8.5-9.3C28,27.2,24.2,30.7,24.2,36.5z"/>
</g>
<g>
	<path class="st1" d="M76.4,17.5l6,4.5l-3.7,4.7c2.5,2.9,3.5,6.1,3.5,9.7c0,4.1-1.5,9.8-6.9,12.3c5.5,2.7,6.8,6.7,6.8,10.9
		c0,9.1-6.9,14.7-16.5,14.7s-16.7-5.8-16.7-14.7h8.1c0,4.3,3.9,7.1,8.6,7.1c4.7,0,8.3-2.5,8.3-7.1S69.6,53,65.5,53
		c-10.3,0-16.7-6.3-16.7-16.5s7.5-16.7,16.7-16.7c2.6,0,5.3,0.3,7.5,1.9L76.4,17.5z M56.9,36.5c0,5.7,3.9,9.1,8.6,9.1
		c4.7,0,8.5-3.5,8.5-9.1s-3.9-9.3-8.5-9.3C60.8,27.2,56.9,30.7,56.9,36.5z"/>
</g>
</svg>
